<svg xmlns="http://www.w3.org/2000/svg" viewBox="0 10.329999923706055 173.66000366210938 36.55000305175781" data-asc="0.927734375" width="173.66000366210938" height="36.55000305175781"><defs/><g fill="#63452c"><g transform="translate(0, 0)"><path d="M29.76 34.35Q29.59 38.06 27.76 40.91Q25.93 43.75 22.62 45.31Q19.31 46.88 15.06 46.88Q8.06 46.88 4.03 42.31Q0 37.74 0 29.42L0 27.66Q0 22.44 1.82 18.52Q3.64 14.60 7.06 12.46Q10.47 10.33 14.97 10.33Q21.44 10.33 25.37 13.73Q29.30 17.14 29.83 23.12L21.29 23.12Q21.19 19.87 19.65 18.46Q18.12 17.04 14.97 17.04Q11.77 17.04 10.28 19.43Q8.79 21.83 8.72 27.08L8.72 29.59Q8.72 35.28 10.14 37.72Q11.57 40.16 15.06 40.16Q18.02 40.16 19.58 38.77Q21.14 37.38 21.24 34.35L29.76 34.35ZM48.32 46.39Q47.88 45.58 47.53 44.02Q45.26 46.88 41.19 46.88Q37.45 46.88 34.84 44.62Q32.23 42.36 32.23 38.94Q32.23 34.64 35.40 32.45Q38.57 30.25 44.63 30.25L47.17 30.25L47.17 28.86Q47.17 25.22 44.02 25.22Q41.09 25.22 41.09 28.10L32.86 28.10Q32.86 24.27 36.12 21.88Q39.38 19.48 44.43 19.48Q49.49 19.48 52.42 21.95Q55.35 24.41 55.42 28.71L55.42 40.41Q55.47 44.04 56.54 45.97L56.54 46.39L48.32 46.39M43.16 41.02Q44.70 41.02 45.72 40.36Q46.73 39.70 47.17 38.87L47.17 34.64L44.78 34.64Q40.48 34.64 40.48 38.50Q40.48 39.62 41.24 40.32Q41.99 41.02 43.16 41.02ZM75.95 27.42L73.24 27.22Q69.36 27.22 68.26 29.66L68.26 46.39L60.03 46.39L60.03 19.97L67.75 19.97L68.02 23.36Q70.09 19.48 73.80 19.48Q75.12 19.48 76.10 19.78L75.95 27.42ZM91.24 46.88Q85.16 46.88 81.40 43.25Q77.64 39.62 77.64 33.81L77.64 33.13Q77.64 29.08 79.14 25.98Q80.64 22.88 83.52 21.18Q86.40 19.48 90.36 19.48Q95.92 19.48 99.15 22.94Q102.37 26.39 102.37 32.57L102.37 35.77L86.01 35.77Q86.45 37.99 87.94 39.26Q89.43 40.53 91.80 40.53Q95.70 40.53 97.90 37.79L101.66 42.24Q100.12 44.36 97.30 45.62Q94.48 46.88 91.24 46.88M90.31 25.83Q86.69 25.83 86.01 30.62L94.31 30.62L94.31 29.98Q94.36 28.00 93.31 26.92Q92.26 25.83 90.31 25.83ZM118.46 46.88Q112.38 46.88 108.62 43.25Q104.86 39.62 104.86 33.81L104.86 33.13Q104.86 29.08 106.36 25.98Q107.86 22.88 110.74 21.18Q113.62 19.48 117.58 19.48Q123.14 19.48 126.37 22.94Q129.59 26.39 129.59 32.57L129.59 35.77L113.23 35.77Q113.67 37.99 115.16 39.26Q116.65 40.53 119.02 40.53Q122.92 40.53 125.12 37.79L128.88 42.24Q127.34 44.36 124.52 45.62Q121.70 46.88 118.46 46.88M117.53 25.83Q113.92 25.83 113.23 30.62L121.53 30.62L121.53 29.98Q121.58 28.00 120.53 26.92Q119.48 25.83 117.53 25.83ZM148.88 27.42L146.17 27.22Q142.29 27.22 141.19 29.66L141.19 46.39L132.96 46.39L132.96 19.97L140.67 19.97L140.94 23.36Q143.02 19.48 146.73 19.48Q148.05 19.48 149.02 19.78L148.88 27.42ZM165.67 38.96Q165.67 37.92 164.58 37.28Q163.48 36.65 160.40 35.96Q157.32 35.28 155.32 34.17Q153.32 33.06 152.27 31.47Q151.22 29.88 151.22 27.83Q151.22 24.19 154.22 21.84Q157.23 19.48 162.08 19.48Q167.31 19.48 170.48 21.85Q173.66 24.22 173.66 28.08L165.41 28.08Q165.41 24.90 162.06 24.90Q160.77 24.90 159.89 25.62Q159.01 26.34 159.01 27.42Q159.01 28.52 160.08 29.20Q161.16 29.88 163.51 30.32Q165.87 30.76 167.65 31.37Q173.61 33.42 173.61 38.72Q173.61 42.33 170.40 44.60Q167.19 46.88 162.08 46.88Q158.69 46.88 156.03 45.65Q153.37 44.43 151.88 42.33Q150.39 40.23 150.39 37.92L158.08 37.92Q158.13 39.75 159.30 40.59Q160.47 41.43 162.30 41.43Q163.99 41.43 164.83 40.75Q165.67 40.06 165.67 38.96Z"/></g></g></svg>