<svg xmlns="http://www.w3.org/2000/svg" viewBox="0 8.859999656677246 433.6400146484375 47.93000030517578" data-asc="0.927734375" width="433.6400146484375" height="47.93000030517578"><defs/><g fill="#63452c"><g transform="translate(0, 0)"><path d="M29.71 33.13L33.79 10.84L42.29 10.84L34.74 46.39L25.85 46.39L21.09 26.12L16.43 46.39L7.57 46.39L0 10.84L8.52 10.84L12.60 33.13L17.48 10.84L24.76 10.84L29.71 33.13ZM57.28 46.88Q51.20 46.88 47.44 43.25Q43.68 39.62 43.68 33.81L43.68 33.13Q43.68 29.08 45.18 25.98Q46.68 22.88 49.56 21.18Q52.44 19.48 56.40 19.48Q61.96 19.48 65.19 22.94Q68.41 26.39 68.41 32.57L68.41 35.77L52.05 35.77Q52.49 37.99 53.98 39.26Q55.47 40.53 57.84 40.53Q61.74 40.53 63.94 37.79L67.70 42.24Q66.16 44.36 63.34 45.62Q60.52 46.88 57.28 46.88M56.35 25.83Q52.73 25.83 52.05 30.62L60.35 30.62L60.35 29.98Q60.40 28.00 59.35 26.92Q58.30 25.83 56.35 25.83ZM99.05 46.39Q98.61 45.58 98.27 44.02Q96.00 46.88 91.92 46.88Q88.18 46.88 85.57 44.62Q82.96 42.36 82.96 38.94Q82.96 34.64 86.13 32.45Q89.31 30.25 95.36 30.25L97.90 30.25L97.90 28.86Q97.90 25.22 94.75 25.22Q91.82 25.22 91.82 28.10L83.59 28.10Q83.59 24.27 86.85 21.88Q90.11 19.48 95.17 19.48Q100.22 19.48 103.15 21.95Q106.08 24.41 106.15 28.71L106.15 40.41Q106.20 44.04 107.28 45.97L107.28 46.39L99.05 46.39M93.90 41.02Q95.43 41.02 96.45 40.36Q97.46 39.70 97.90 38.87L97.90 34.64L95.51 34.64Q91.21 34.64 91.21 38.50Q91.21 39.62 91.97 40.32Q92.72 41.02 93.90 41.02ZM126.68 27.42L123.97 27.22Q120.09 27.22 118.99 29.66L118.99 46.39L110.77 46.39L110.77 19.97L118.48 19.97L118.75 23.36Q120.83 19.48 124.54 19.48Q125.85 19.48 126.83 19.78L126.68 27.42ZM141.97 46.88Q135.89 46.88 132.13 43.25Q128.37 39.62 128.37 33.81L128.37 33.13Q128.37 29.08 129.87 25.98Q131.37 22.88 134.25 21.18Q137.13 19.48 141.09 19.48Q146.66 19.48 149.88 22.94Q153.10 26.39 153.10 32.57L153.10 35.77L136.74 35.77Q137.18 37.99 138.67 39.26Q140.16 40.53 142.53 40.53Q146.44 40.53 148.63 37.79L152.39 42.24Q150.85 44.36 148.03 45.62Q145.21 46.88 141.97 46.88M141.04 25.83Q137.43 25.83 136.74 30.62L145.04 30.62L145.04 29.98Q145.09 28.00 144.04 26.92Q142.99 25.83 141.04 25.83ZM177.81 39.79L192.72 39.79L192.72 46.39L169.24 46.39L169.24 10.84L177.81 10.84L177.81 39.79ZM194.92 32.93Q194.92 28.98 196.46 25.89Q198.00 22.80 200.88 21.14Q203.76 19.48 207.64 19.48Q213.57 19.48 216.99 23.16Q220.41 26.83 220.41 33.15L220.41 33.45Q220.41 39.62 216.98 43.25Q213.55 46.88 207.69 46.88Q202.05 46.88 198.63 43.49Q195.21 40.11 194.95 34.33L194.92 32.93M203.15 33.45Q203.15 37.11 204.30 38.82Q205.44 40.53 207.69 40.53Q212.08 40.53 212.18 33.76L212.18 32.93Q212.18 25.83 207.64 25.83Q203.52 25.83 203.17 31.96L203.15 33.45ZM223.00 32.93Q223.00 28.98 224.54 25.89Q226.07 22.80 228.96 21.14Q231.84 19.48 235.72 19.48Q241.65 19.48 245.07 23.16Q248.49 26.83 248.49 33.15L248.49 33.45Q248.49 39.62 245.06 43.25Q241.63 46.88 235.77 46.88Q230.13 46.88 226.71 43.49Q223.29 40.11 223.02 34.33L223.00 32.93M231.23 33.45Q231.23 37.11 232.37 38.82Q233.52 40.53 235.77 40.53Q240.16 40.53 240.26 33.76L240.26 32.93Q240.26 25.83 235.72 25.83Q231.59 25.83 231.25 31.96L231.23 33.45ZM262.72 36.55L260.40 38.87L260.40 46.39L252.17 46.39L252.17 8.86L260.40 8.86L260.40 28.78L261.23 27.69L267.43 19.97L277.29 19.97L268.04 30.83L277.91 46.39L268.48 46.39L262.72 36.55ZM288.13 46.39L279.88 46.39L279.88 19.97L288.13 19.97L288.13 46.39M279.39 13.16Q279.39 11.40 280.66 10.28Q281.93 9.16 283.96 9.16Q285.99 9.16 287.26 10.28Q288.53 11.40 288.53 13.16Q288.53 14.92 287.26 16.04Q285.99 17.16 283.96 17.16Q281.93 17.16 280.66 16.04Q279.39 14.92 279.39 13.16ZM300.76 19.97L301.03 23.07Q303.76 19.48 308.57 19.48Q312.70 19.48 314.73 21.95Q316.77 24.41 316.85 29.37L316.85 46.39L308.59 46.39L308.59 29.71Q308.59 27.71 307.79 26.77Q306.98 25.83 304.86 25.83Q302.44 25.83 301.27 27.73L301.27 46.39L293.04 46.39L293.04 19.97L300.76 19.97ZM320.43 32.98Q320.43 28.98 321.75 25.90Q323.07 22.83 325.54 21.15Q328.00 19.48 331.27 19.48Q335.40 19.48 337.72 22.27L338.01 19.97L345.48 19.97L345.48 45.39Q345.48 48.88 343.86 51.45Q342.24 54.03 339.16 55.41Q336.08 56.79 332.03 56.79Q329.13 56.79 326.40 55.69Q323.68 54.59 322.24 52.83L325.68 48.00Q327.98 50.71 331.74 50.71Q337.21 50.71 337.21 45.09L337.21 44.26Q334.84 46.88 331.23 46.88Q326.39 46.88 323.41 43.18Q320.43 39.48 320.43 33.28L320.43 32.98M328.69 33.50Q328.69 36.74 329.91 38.64Q331.13 40.53 333.33 40.53Q335.99 40.53 337.21 38.75L337.21 27.64Q336.01 25.83 333.37 25.83Q331.18 25.83 329.93 27.80Q328.69 29.76 328.69 33.50ZM385.38 32.23L371.56 32.23L371.56 46.39L362.99 46.39L362.99 10.84L386.77 10.84L386.77 17.46L371.56 17.46L371.56 25.63L385.38 25.63L385.38 32.23ZM388.40 32.93Q388.40 28.98 389.94 25.89Q391.48 22.80 394.36 21.14Q397.24 19.48 401.12 19.48Q407.06 19.48 410.47 23.16Q413.89 26.83 413.89 33.15L413.89 33.45Q413.89 39.62 410.46 43.25Q407.03 46.88 401.17 46.88Q395.53 46.88 392.11 43.49Q388.70 40.11 388.43 34.33L388.40 32.93M396.63 33.45Q396.63 37.11 397.78 38.82Q398.93 40.53 401.17 40.53Q405.57 40.53 405.66 33.76L405.66 32.93Q405.66 25.83 401.12 25.83Q397.00 25.83 396.66 31.96L396.63 33.45ZM433.50 27.42L430.79 27.22Q426.90 27.22 425.81 29.66L425.81 46.39L417.58 46.39L417.58 19.97L425.29 19.97L425.56 23.36Q427.64 19.48 431.35 19.48Q432.67 19.48 433.64 19.78L433.50 27.42Z"/></g></g></svg>