<svg xmlns="http://www.w3.org/2000/svg" viewBox="0 16.450000762939453 266.45001220703125 47.54999923706055" data-asc="1.06" width="266.45001220703125" height="47.54999923706055"><defs/><g fill="#cdab8f"><g transform="translate(0, 0)"><path d="M16.40 53.60Q10.90 53.60 7.25 51.38Q3.60 49.15 1.80 45.05Q0 40.95 0 35.40Q0 29.15 2.08 25.17Q4.15 21.20 7.75 19.30Q11.35 17.40 15.90 17.40Q18.55 17.40 20.98 18Q23.40 18.60 25.60 19.75L25.60 25.45L24.40 25.95Q22.45 24.65 20.58 24.15Q18.70 23.65 16.85 23.65Q14.05 23.65 11.88 24.82Q9.70 26 8.48 28.57Q7.25 31.15 7.25 35.40Q7.25 41.55 9.90 44.42Q12.55 47.30 17 47.30Q19 47.30 20.95 46.75Q22.90 46.20 24.80 45.10L26 45.60L26 51.35Q23.85 52.45 21.53 53.02Q19.20 53.60 16.40 53.60ZM43.10 53.60Q39.45 53.60 36.58 52.27Q33.70 50.95 32.05 48Q30.40 45.05 30.40 40.20Q30.40 36.60 31.35 34.08Q32.30 31.55 34.02 29.95Q35.75 28.35 38.05 27.63Q40.35 26.90 43.10 26.90Q45.85 26.90 48.15 27.63Q50.45 28.35 52.17 29.95Q53.90 31.55 54.85 34.08Q55.80 36.60 55.80 40.20Q55.80 45.05 54.15 48Q52.50 50.95 49.63 52.27Q46.75 53.60 43.10 53.60M43.10 48Q46.20 48 47.60 46.13Q49 44.25 49 40.20Q49 37.45 48.40 35.75Q47.80 34.05 46.50 33.27Q45.20 32.50 43.10 32.50Q41.05 32.50 39.73 33.27Q38.40 34.05 37.80 35.75Q37.20 37.45 37.20 40.20Q37.20 44.25 38.60 46.13Q40 48 43.10 48ZM93.40 53L93.90 49L93.90 37Q93.90 34.65 92.55 33.55Q91.20 32.45 88.40 32.45Q86.60 32.45 85.35 32.83Q84.10 33.20 83.30 33.77Q82.50 34.35 82 34.95L82 30.30L85.40 27.45Q86.65 27.15 87.85 27.02Q89.05 26.90 90.20 26.90Q93.15 26.90 95.50 27.77Q97.85 28.65 99.23 30.82Q100.60 33 100.60 36.95L100.60 49L101.10 53L93.40 53M61.70 53L62.20 49L62.20 31.50L61.70 27.50L66.95 27.50L68.90 32.90L68.90 49L69.40 53L61.70 53M77.55 53L78.05 49L78.05 37Q78.05 34.65 76.70 33.55Q75.35 32.45 72.55 32.45Q71.10 32.45 70 32.70Q68.90 32.95 68.08 33.40Q67.25 33.85 66.65 34.45L66.65 31.80L70.55 27.45Q71.70 27.20 72.93 27.05Q74.15 26.90 75.25 26.90Q77.75 26.90 79.93 27.77Q82.10 28.65 83.43 30.82Q84.75 33 84.75 36.95L84.75 49L85.25 53L77.55 53ZM121.80 53.60Q120.90 53.60 119.73 53.48Q118.55 53.35 117.20 53L111.35 45.85L111.35 43.35Q111.95 44.40 113 45.48Q114.05 46.55 115.75 47.27Q117.45 48 120 48Q123.30 48 124.93 46.30Q126.55 44.60 126.55 40.15Q126.55 36.85 125.75 35.22Q124.95 33.60 123.53 33.05Q122.10 32.50 120.25 32.50Q117.70 32.50 115.95 33.10Q114.20 33.70 113.05 34.52Q111.90 35.35 111.15 36.15L111.15 34.35L117.35 27.50Q118.50 27.20 119.65 27.05Q120.80 26.90 121.75 26.90Q124.75 26.90 127.40 28.27Q130.05 29.65 131.70 32.58Q133.35 35.50 133.35 40.10Q133.35 44.05 131.97 47.10Q130.60 50.15 128.03 51.88Q125.45 53.60 121.80 53.60M107.95 64L108.45 60L108.45 31.50L107.95 27.50L114.15 27.50L115.15 32.10L115.15 60L115.65 64L107.95 64ZM154.85 53L154.10 49.35L154.10 37.70Q154.10 35.95 153.78 34.75Q153.45 33.55 152.13 32.92Q150.80 32.30 147.80 32.30Q146.10 32.30 144.57 32.58Q143.05 32.85 141.35 33.55L140.35 33.05L140.35 28.05Q142.55 27.30 144.60 27.10Q146.65 26.90 148.15 26.90Q153.20 26.90 155.93 28.07Q158.65 29.25 159.70 31.57Q160.75 33.90 160.75 37.40L160.75 49L161.15 53L154.85 53M147.85 53.60Q145.50 53.60 143.28 52.88Q141.05 52.15 139.60 50.33Q138.15 48.50 138.15 45.15Q138.15 42.45 139.13 40.83Q140.10 39.20 141.65 38.40Q143.20 37.60 145.05 37.33Q146.90 37.05 148.70 37.05Q149.55 37.05 150.55 37.08Q151.55 37.10 152.60 37.20L157 39.40L157 42.70Q155.60 42 154 41.73Q152.40 41.45 150.35 41.45Q147.35 41.45 146.10 42.17Q144.85 42.90 144.85 44.95Q144.85 47.10 146.07 47.83Q147.30 48.55 149.70 48.55Q153.05 48.55 154.72 47.55Q156.40 46.55 157.15 45.15L157.40 46.95L152 53.10Q150.95 53.35 149.90 53.48Q148.85 53.60 147.85 53.60ZM185.05 53L185.55 49L185.55 37Q185.55 34.65 184.13 33.55Q182.70 32.45 179.60 32.45Q178 32.45 176.83 32.70Q175.65 32.95 174.83 33.40Q174 33.85 173.40 34.45L173.40 31.80L177.95 27.30Q178.90 27.10 179.88 27Q180.85 26.90 181.95 26.90Q184.65 26.90 187 27.77Q189.35 28.65 190.80 30.82Q192.25 33 192.25 36.95L192.25 49L192.75 53L185.05 53M167.65 53L168.15 49L168.15 31.40L167.65 27.50L173.65 27.50L174.85 30.45L174.85 49L175.35 53L167.65 53ZM206.60 24.05Q205.00 24.05 203.90 23.02Q202.80 22 202.80 20.25Q202.80 18.50 203.90 17.48Q205.00 16.45 206.60 16.45Q208.20 16.45 209.30 17.48Q210.40 18.50 210.40 20.25Q210.40 22 209.30 23.02Q208.20 24.05 206.60 24.05M203.20 53L203.70 49L203.70 33.10L198.00 33.10L198.00 27.50L210.90 27.50L210.40 31.50L210.40 49L210.90 53L203.20 53ZM217.65 40.30Q217.65 35.40 219.28 32.47Q220.90 29.55 223.68 28.22Q226.45 26.90 229.95 26.90Q233.95 26.90 236.50 28.38Q239.05 29.85 240.25 32.45Q241.45 35.05 241.45 38.50Q241.45 39.60 241.35 40.60Q241.25 41.60 241.10 42.90L222.35 42.90L222.35 41.40L226.85 38.20L235.05 38.20Q235.05 36.20 234.60 34.92Q234.15 33.65 233.00 33.02Q231.85 32.40 229.70 32.40Q227.80 32.40 226.65 33.02Q225.50 33.65 224.98 35.25Q224.45 36.85 224.45 39.85Q224.45 42.45 224.85 44.08Q225.25 45.70 226.13 46.55Q227.00 47.40 228.48 47.70Q229.95 48 232.05 48Q233.80 48 235.50 47.77Q237.20 47.55 239.05 46.75L240.05 47.25L240.05 52.35Q238.65 52.90 236.85 53.25Q235.05 53.60 232.25 53.60Q229.30 53.60 226.68 53.05Q224.05 52.50 222.03 51.08Q220.00 49.65 218.83 47.02Q217.65 44.40 217.65 40.30ZM265 28.10L265 33.30L264 33.80Q262.75 33.20 261.18 32.85Q259.60 32.50 257.70 32.50Q256.85 32.50 255.68 32.65Q254.50 32.80 253.63 33.30Q252.75 33.80 252.75 34.85Q252.75 35.90 253.75 36.45Q254.75 37 256.30 37.35Q257.85 37.70 259.60 38.13Q261.35 38.55 262.90 39.35Q264.45 40.15 265.45 41.63Q266.45 43.10 266.45 45.55Q266.45 48.50 264.98 50.27Q263.50 52.05 260.98 52.83Q258.45 53.60 255.35 53.60Q252.60 53.60 250.28 53.13Q247.95 52.65 246.35 52.15L246.35 46.70L247.35 46.20Q248.30 46.80 250.15 47.40Q252.00 48 255.10 48Q256.50 48 257.60 47.83Q258.70 47.65 259.35 47.15Q260 46.65 260 45.80Q260 44.70 259.03 44.17Q258.05 43.65 256.48 43.35Q254.90 43.05 253.18 42.65Q251.45 42.25 249.88 41.45Q248.30 40.65 247.33 39.08Q246.35 37.50 246.35 34.85Q246.35 32.60 247.13 31.05Q247.90 29.50 249.38 28.60Q250.85 27.70 252.88 27.30Q254.90 26.90 257.40 26.90Q259.80 26.90 261.68 27.22Q263.55 27.55 265 28.10Z"/></g></g></svg>