<svg xmlns="http://www.w3.org/2000/svg" viewBox="0 16.450000762939453 358.70001220703125 47.54999923706055" data-asc="1.06" width="358.70001220703125" height="47.54999923706055"><defs/><g fill="#cdab8f"><g transform="translate(0, 0)"><path d="M0 53L0.50 49L0.50 22L0 18L22.30 18L22.30 24.40L19.30 23.90L7.40 23.90L7.40 33.40L20.80 33.40L20.80 39.90L17.80 39.50L7.40 39.50L7.40 49L7.90 53L0 53ZM39.70 53.60Q36.05 53.60 33.18 52.27Q30.30 50.95 28.65 48Q27 45.05 27 40.20Q27 36.60 27.95 34.08Q28.90 31.55 30.63 29.95Q32.35 28.35 34.65 27.63Q36.95 26.90 39.70 26.90Q42.45 26.90 44.75 27.63Q47.05 28.35 48.78 29.95Q50.50 31.55 51.45 34.08Q52.40 36.60 52.40 40.20Q52.40 45.05 50.75 48Q49.10 50.95 46.23 52.27Q43.35 53.60 39.70 53.60M39.70 48Q42.80 48 44.20 46.13Q45.60 44.25 45.60 40.20Q45.60 37.45 45 35.75Q44.40 34.05 43.10 33.27Q41.80 32.50 39.70 32.50Q37.65 32.50 36.33 33.27Q35 34.05 34.40 35.75Q33.80 37.45 33.80 40.20Q33.80 44.25 35.20 46.13Q36.60 48 39.70 48ZM58.30 53L58.80 49L58.80 31.50L58.30 27.50L63.65 27.50L64.45 30.45L65.50 30.45L65.50 49L65.85 53L58.30 53M62.95 38.35L62.95 33.05L67.85 27.55Q69.50 26.90 71.30 26.90Q72.30 26.90 73.25 27.07Q74.20 27.25 75.15 27.65L75.15 33.50L74.15 34Q73.10 33.50 72.15 33.35Q71.20 33.20 70.45 33.20Q68.40 33.20 66.28 34.30Q64.15 35.40 62.95 38.35ZM108.65 53.60Q103.15 53.60 99.50 51.38Q95.85 49.15 94.05 45.05Q92.25 40.95 92.25 35.40Q92.25 29.15 94.33 25.17Q96.40 21.20 100 19.30Q103.60 17.40 108.15 17.40Q110.80 17.40 113.22 18Q115.65 18.60 117.85 19.75L117.85 25.45L116.65 25.95Q114.70 24.65 112.83 24.15Q110.95 23.65 109.10 23.65Q106.30 23.65 104.13 24.82Q101.95 26 100.72 28.57Q99.50 31.15 99.50 35.40Q99.50 41.55 102.15 44.42Q104.80 47.30 109.25 47.30Q111.25 47.30 113.20 46.75Q115.15 46.20 117.05 45.10L118.25 45.60L118.25 51.35Q116.10 52.45 113.78 53.02Q111.45 53.60 108.65 53.60ZM135.35 53.60Q131.70 53.60 128.82 52.27Q125.95 50.95 124.30 48Q122.65 45.05 122.65 40.20Q122.65 36.60 123.60 34.08Q124.55 31.55 126.28 29.95Q128 28.35 130.30 27.63Q132.60 26.90 135.35 26.90Q138.10 26.90 140.40 27.63Q142.70 28.35 144.43 29.95Q146.15 31.55 147.10 34.08Q148.05 36.60 148.05 40.20Q148.05 45.05 146.40 48Q144.75 50.95 141.88 52.27Q139 53.60 135.35 53.60M135.35 48Q138.45 48 139.85 46.13Q141.25 44.25 141.25 40.20Q141.25 37.45 140.65 35.75Q140.05 34.05 138.75 33.27Q137.45 32.50 135.35 32.50Q133.30 32.50 131.97 33.27Q130.65 34.05 130.05 35.75Q129.45 37.45 129.45 40.20Q129.45 44.25 130.85 46.13Q132.25 48 135.35 48ZM185.65 53L186.15 49L186.15 37Q186.15 34.65 184.80 33.55Q183.45 32.45 180.65 32.45Q178.85 32.45 177.60 32.83Q176.35 33.20 175.55 33.77Q174.75 34.35 174.25 34.95L174.25 30.30L177.65 27.45Q178.90 27.15 180.10 27.02Q181.30 26.90 182.45 26.90Q185.40 26.90 187.75 27.77Q190.10 28.65 191.47 30.82Q192.85 33 192.85 36.95L192.85 49L193.35 53L185.65 53M153.95 53L154.45 49L154.45 31.50L153.95 27.50L159.20 27.50L161.15 32.90L161.15 49L161.65 53L153.95 53M169.80 53L170.30 49L170.30 37Q170.30 34.65 168.95 33.55Q167.60 32.45 164.80 32.45Q163.35 32.45 162.25 32.70Q161.15 32.95 160.32 33.40Q159.50 33.85 158.90 34.45L158.90 31.80L162.80 27.45Q163.95 27.20 165.17 27.05Q166.40 26.90 167.50 26.90Q170 26.90 172.17 27.77Q174.35 28.65 175.67 30.82Q177 33 177 36.95L177 49L177.50 53L169.80 53ZM214.05 53.60Q213.15 53.60 211.97 53.48Q210.80 53.35 209.45 53L203.60 45.85L203.60 43.35Q204.20 44.40 205.25 45.48Q206.30 46.55 208 47.27Q209.70 48 212.25 48Q215.55 48 217.17 46.30Q218.80 44.60 218.80 40.15Q218.80 36.85 218 35.22Q217.20 33.60 215.77 33.05Q214.35 32.50 212.50 32.50Q209.95 32.50 208.20 33.10Q206.45 33.70 205.30 34.52Q204.15 35.35 203.40 36.15L203.40 34.35L209.60 27.50Q210.75 27.20 211.90 27.05Q213.05 26.90 214 26.90Q217 26.90 219.65 28.27Q222.30 29.65 223.95 32.58Q225.60 35.50 225.60 40.10Q225.60 44.05 224.22 47.10Q222.85 50.15 220.27 51.88Q217.70 53.60 214.05 53.60M200.20 64L200.70 60L200.70 31.50L200.20 27.50L206.40 27.50L207.40 32.10L207.40 60L207.90 64L200.20 64ZM247.10 53L246.35 49.35L246.35 37.70Q246.35 35.95 246.03 34.75Q245.70 33.55 244.38 32.92Q243.05 32.30 240.05 32.30Q238.35 32.30 236.82 32.58Q235.30 32.85 233.60 33.55L232.60 33.05L232.60 28.05Q234.80 27.30 236.85 27.10Q238.90 26.90 240.40 26.90Q245.45 26.90 248.18 28.07Q250.90 29.25 251.95 31.57Q253 33.90 253 37.40L253 49L253.40 53L247.10 53M240.10 53.60Q237.75 53.60 235.53 52.88Q233.30 52.15 231.85 50.33Q230.40 48.50 230.40 45.15Q230.40 42.45 231.38 40.83Q232.35 39.20 233.90 38.40Q235.45 37.60 237.30 37.33Q239.15 37.05 240.95 37.05Q241.80 37.05 242.80 37.08Q243.80 37.10 244.85 37.20L249.25 39.40L249.25 42.70Q247.85 42 246.25 41.73Q244.65 41.45 242.60 41.45Q239.60 41.45 238.35 42.17Q237.10 42.90 237.10 44.95Q237.10 47.10 238.32 47.83Q239.55 48.55 241.95 48.55Q245.30 48.55 246.97 47.55Q248.65 46.55 249.40 45.15L249.65 46.95L244.25 53.10Q243.20 53.35 242.15 53.48Q241.10 53.60 240.10 53.60ZM277.30 53L277.80 49L277.80 37Q277.80 34.65 276.38 33.55Q274.95 32.45 271.85 32.45Q270.25 32.45 269.07 32.70Q267.90 32.95 267.07 33.40Q266.25 33.85 265.65 34.45L265.65 31.80L270.20 27.30Q271.15 27.10 272.13 27Q273.10 26.90 274.20 26.90Q276.90 26.90 279.25 27.77Q281.60 28.65 283.05 30.82Q284.50 33 284.50 36.95L284.50 49L285 53L277.30 53M259.90 53L260.40 49L260.40 31.40L259.90 27.50L265.90 27.50L267.10 30.45L267.10 49L267.60 53L259.90 53ZM298.85 24.05Q297.25 24.05 296.15 23.02Q295.05 22 295.05 20.25Q295.05 18.50 296.15 17.48Q297.25 16.45 298.85 16.45Q300.45 16.45 301.55 17.48Q302.65 18.50 302.65 20.25Q302.65 22 301.55 23.02Q300.45 24.05 298.85 24.05M295.45 53L295.95 49L295.95 33.10L290.25 33.10L290.25 27.50L303.15 27.50L302.65 31.50L302.65 49L303.15 53L295.45 53ZM309.90 40.30Q309.90 35.40 311.52 32.47Q313.15 29.55 315.92 28.22Q318.70 26.90 322.20 26.90Q326.20 26.90 328.75 28.38Q331.30 29.85 332.50 32.45Q333.70 35.05 333.70 38.50Q333.70 39.60 333.60 40.60Q333.50 41.60 333.35 42.90L314.60 42.90L314.60 41.40L319.10 38.20L327.30 38.20Q327.30 36.20 326.85 34.92Q326.40 33.65 325.25 33.02Q324.10 32.40 321.95 32.40Q320.05 32.40 318.90 33.02Q317.75 33.65 317.22 35.25Q316.70 36.85 316.70 39.85Q316.70 42.45 317.10 44.08Q317.50 45.70 318.37 46.55Q319.25 47.40 320.72 47.70Q322.20 48 324.30 48Q326.05 48 327.75 47.77Q329.45 47.55 331.30 46.75L332.30 47.25L332.30 52.35Q330.90 52.90 329.10 53.25Q327.30 53.60 324.50 53.60Q321.55 53.60 318.92 53.05Q316.30 52.50 314.27 51.08Q312.25 49.65 311.07 47.02Q309.90 44.40 309.90 40.30ZM357.25 28.10L357.25 33.30L356.25 33.80Q355.00 33.20 353.42 32.85Q351.85 32.50 349.95 32.50Q349.10 32.50 347.92 32.65Q346.75 32.80 345.87 33.30Q345.00 33.80 345.00 34.85Q345.00 35.90 346.00 36.45Q347.00 37 348.55 37.35Q350.10 37.70 351.85 38.13Q353.60 38.55 355.15 39.35Q356.70 40.15 357.70 41.63Q358.70 43.10 358.70 45.55Q358.70 48.50 357.22 50.27Q355.75 52.05 353.22 52.83Q350.70 53.60 347.60 53.60Q344.85 53.60 342.52 53.13Q340.20 52.65 338.60 52.15L338.60 46.70L339.60 46.20Q340.55 46.80 342.40 47.40Q344.25 48 347.35 48Q348.75 48 349.85 47.83Q350.95 47.65 351.60 47.15Q352.25 46.65 352.25 45.80Q352.25 44.70 351.27 44.17Q350.30 43.65 348.72 43.35Q347.15 43.05 345.42 42.65Q343.70 42.25 342.12 41.45Q340.55 40.65 339.57 39.08Q338.60 37.50 338.60 34.85Q338.60 32.60 339.37 31.05Q340.15 29.50 341.62 28.60Q343.10 27.70 345.12 27.30Q347.15 26.90 349.65 26.90Q352.05 26.90 353.92 27.22Q355.80 27.55 357.25 28.10Z"/></g></g></svg>