<svg xmlns="http://www.w3.org/2000/svg" viewBox="0 16.450000762939453 326.3500061035156 37.1533317565918" data-asc="1.06" width="326.3500061035156" height="37.1533317565918"><defs/><g fill="#b5835a"><g transform="translate(0, 0)"><path d="M10.45 53.60Q7.15 53.65 4.63 52.95Q2.10 52.25 0 51.10L0 45.20L1.20 44.70Q2.85 45.90 4.98 46.60Q7.10 47.30 9.90 47.30Q12.70 47.30 14.50 46.45Q16.30 45.60 16.30 43.55Q16.30 42.10 15.43 41.17Q14.55 40.25 13.10 39.63Q11.65 39 9.90 38.45Q8.15 37.90 6.40 37.15Q4.65 36.40 3.20 35.22Q1.75 34.05 0.88 32.22Q0 30.40 0 27.65Q0 24.20 1.50 21.92Q3 19.65 5.75 18.52Q8.50 17.40 12.25 17.40Q14.85 17.40 17.20 17.88Q19.55 18.35 21.55 19.20L21.55 25.05L20.35 25.55Q18.80 24.65 17.00 24.17Q15.20 23.70 13.30 23.70Q12.15 23.70 10.70 23.97Q9.25 24.25 8.18 25.07Q7.10 25.90 7.10 27.55Q7.10 29 7.98 29.92Q8.85 30.85 10.30 31.47Q11.75 32.10 13.50 32.70Q15.25 33.30 17.00 34.05Q18.75 34.80 20.20 35.95Q21.65 37.10 22.53 38.85Q23.40 40.60 23.40 43.25Q23.40 45.75 22.53 47.65Q21.65 49.55 20.00 50.88Q18.35 52.20 15.95 52.88Q13.55 53.55 10.45 53.60ZM41.20 53.60Q37.55 53.60 34.68 52.27Q31.80 50.95 30.15 48Q28.50 45.05 28.50 40.20Q28.50 36.60 29.45 34.08Q30.40 31.55 32.13 29.95Q33.85 28.35 36.15 27.63Q38.45 26.90 41.20 26.90Q43.95 26.90 46.25 27.63Q48.55 28.35 50.28 29.95Q52 31.55 52.95 34.08Q53.90 36.60 53.90 40.20Q53.90 45.05 52.25 48Q50.60 50.95 47.73 52.27Q44.85 53.60 41.20 53.60M41.20 48Q44.30 48 45.70 46.13Q47.10 44.25 47.10 40.20Q47.10 37.45 46.50 35.75Q45.90 34.05 44.60 33.27Q43.30 32.50 41.20 32.50Q39.15 32.50 37.83 33.27Q36.50 34.05 35.90 35.75Q35.30 37.45 35.30 40.20Q35.30 44.25 36.70 46.13Q38.10 48 41.20 48ZM72.60 47.60L72.60 53Q71.35 53.35 70.15 53.48Q68.95 53.60 67.95 53.60Q65.70 53.60 63.98 52.92Q62.25 52.25 61.28 50.73Q60.30 49.20 60.30 46.60L60.30 20.60L59.80 16.60L67.50 16.60L67 20.60L67 45.40Q67 46.80 67.88 47.23Q68.75 47.65 69.55 47.65Q70.25 47.65 70.75 47.48Q71.25 47.30 71.60 47.10L72.60 47.60ZM88.45 53.60Q86.30 53.60 84.43 53.15Q82.55 52.70 81.15 51.58Q79.75 50.45 78.98 48.50Q78.20 46.55 78.20 43.55L78.20 31.50L77.70 27.50L85.40 27.50L84.90 31.50L84.90 43.50Q84.90 45.05 85.53 46.05Q86.15 47.05 87.48 47.55Q88.80 48.05 90.85 48.05Q93.25 48.05 94.70 47.48Q96.15 46.90 97.05 46.05L97.05 48.70L93.15 53.05Q92.10 53.30 90.95 53.45Q89.80 53.60 88.45 53.60M96.80 53L95.60 50.05L95.60 31.50L95.10 27.50L102.80 27.50L102.30 31.50L102.30 49.10L102.80 53L96.80 53ZM111.65 45.40L111.65 23.90L111.40 20.40L118.60 20.40L118.35 23.90L118.35 44.70Q118.35 46.50 119.15 47.17Q119.95 47.85 121.95 47.85Q123.10 47.85 123.93 47.65Q124.75 47.45 125.50 47.10L126.50 47.60L126.50 52.85Q125.40 53.15 123.98 53.38Q122.55 53.60 120.95 53.60Q118.25 53.60 116.15 52.83Q114.05 52.05 112.85 50.23Q111.65 48.40 111.65 45.40M107.35 33.45L107.35 27.50L109.65 27.50L114.95 29L120.35 27.50L125.50 27.50L125.50 33.45L123 33.20L109.85 33.20L107.35 33.45ZM139 24.05Q137.40 24.05 136.30 23.02Q135.20 22 135.20 20.25Q135.20 18.50 136.30 17.48Q137.40 16.45 139 16.45Q140.60 16.45 141.70 17.48Q142.80 18.50 142.80 20.25Q142.80 22 141.70 23.02Q140.60 24.05 139 24.05M135.60 53L136.10 49L136.10 33.10L130.40 33.10L130.40 27.50L143.30 27.50L142.80 31.50L142.80 49L143.30 53L135.60 53ZM162.75 53.60Q159.10 53.60 156.22 52.27Q153.35 50.95 151.70 48Q150.05 45.05 150.05 40.20Q150.05 36.60 151 34.08Q151.95 31.55 153.68 29.95Q155.40 28.35 157.70 27.63Q160 26.90 162.75 26.90Q165.50 26.90 167.80 27.63Q170.10 28.35 171.83 29.95Q173.55 31.55 174.50 34.08Q175.45 36.60 175.45 40.20Q175.45 45.05 173.80 48Q172.15 50.95 169.28 52.27Q166.40 53.60 162.75 53.60M162.75 48Q165.85 48 167.25 46.13Q168.65 44.25 168.65 40.20Q168.65 37.45 168.05 35.75Q167.45 34.05 166.15 33.27Q164.85 32.50 162.75 32.50Q160.70 32.50 159.38 33.27Q158.05 34.05 157.45 35.75Q156.85 37.45 156.85 40.20Q156.85 44.25 158.25 46.13Q159.65 48 162.75 48ZM198.75 53L199.25 49L199.25 37Q199.25 34.65 197.83 33.55Q196.40 32.45 193.30 32.45Q191.70 32.45 190.53 32.70Q189.35 32.95 188.53 33.40Q187.70 33.85 187.10 34.45L187.10 31.80L191.65 27.30Q192.60 27.10 193.58 27Q194.55 26.90 195.65 26.90Q198.35 26.90 200.70 27.77Q203.05 28.65 204.50 30.82Q205.95 33 205.95 36.95L205.95 49L206.45 53L198.75 53M181.35 53L181.85 49L181.85 31.40L181.35 27.50L187.35 27.50L188.55 30.45L188.55 49L189.05 53L181.35 53ZM231.05 28.10L231.05 33.30L230.05 33.80Q228.80 33.20 227.23 32.85Q225.65 32.50 223.75 32.50Q222.90 32.50 221.73 32.65Q220.55 32.80 219.68 33.30Q218.80 33.80 218.80 34.85Q218.80 35.90 219.80 36.45Q220.80 37 222.35 37.35Q223.90 37.70 225.65 38.13Q227.40 38.55 228.95 39.35Q230.50 40.15 231.50 41.63Q232.50 43.10 232.50 45.55Q232.50 48.50 231.03 50.27Q229.55 52.05 227.03 52.83Q224.50 53.60 221.40 53.60Q218.65 53.60 216.33 53.13Q214 52.65 212.40 52.15L212.40 46.70L213.40 46.20Q214.35 46.80 216.20 47.40Q218.05 48 221.15 48Q222.55 48 223.65 47.83Q224.75 47.65 225.40 47.15Q226.05 46.65 226.05 45.80Q226.05 44.70 225.08 44.17Q224.10 43.65 222.53 43.35Q220.95 43.05 219.23 42.65Q217.50 42.25 215.93 41.45Q214.35 40.65 213.38 39.08Q212.40 37.50 212.40 34.85Q212.40 32.60 213.18 31.05Q213.95 29.50 215.43 28.60Q216.90 27.70 218.93 27.30Q220.95 26.90 223.45 26.90Q225.85 26.90 227.73 27.22Q229.60 27.55 231.05 28.10ZM251.20 53L251.70 49L251.70 22L251.20 18L273.50 18L273.50 24.40L270.50 23.90L258.60 23.90L258.60 33.40L272 33.40L272 39.90L269 39.50L258.60 39.50L258.60 49L259.10 53L251.20 53ZM290.90 53.60Q287.25 53.60 284.38 52.27Q281.50 50.95 279.85 48Q278.20 45.05 278.20 40.20Q278.20 36.60 279.15 34.08Q280.10 31.55 281.82 29.95Q283.55 28.35 285.85 27.63Q288.15 26.90 290.90 26.90Q293.65 26.90 295.95 27.63Q298.25 28.35 299.98 29.95Q301.70 31.55 302.65 34.08Q303.60 36.60 303.60 40.20Q303.60 45.05 301.95 48Q300.30 50.95 297.43 52.27Q294.55 53.60 290.90 53.60M290.90 48Q294 48 295.40 46.13Q296.80 44.25 296.80 40.20Q296.80 37.45 296.20 35.75Q295.60 34.05 294.30 33.27Q293 32.50 290.90 32.50Q288.85 32.50 287.53 33.27Q286.20 34.05 285.60 35.75Q285 37.45 285 40.20Q285 44.25 286.40 46.13Q287.80 48 290.90 48ZM309.50 53L310 49L310 31.50L309.50 27.50L314.85 27.50L315.65 30.45L316.70 30.45L316.70 49L317.05 53L309.50 53M314.15 38.35L314.15 33.05L319.05 27.55Q320.70 26.90 322.50 26.90Q323.50 26.90 324.45 27.07Q325.40 27.25 326.35 27.65L326.35 33.50L325.35 34Q324.30 33.50 323.35 33.35Q322.40 33.20 321.65 33.20Q319.60 33.20 317.48 34.30Q315.35 35.40 314.15 38.35Z"/></g></g></svg>