<svg xmlns="http://www.w3.org/2000/svg" viewBox="0 16.450000762939453 360.95001220703125 37.1533317565918" data-asc="1.06" width="360.95001220703125" height="37.1533317565918"><defs/><g fill="#b5835a"><g transform="translate(0, 0)"><path d="M9.40 53L9.90 49L9.90 20.80L16.80 20.80L16.80 49L17.30 53L9.40 53M0 24.60L0 18L26.70 18L26.70 24.60L23.70 24.10L3 24.10L0 24.60ZM30.10 40.30Q30.10 35.40 31.73 32.47Q33.35 29.55 36.13 28.22Q38.90 26.90 42.40 26.90Q46.40 26.90 48.95 28.38Q51.50 29.85 52.70 32.45Q53.90 35.05 53.90 38.50Q53.90 39.60 53.80 40.60Q53.70 41.60 53.55 42.90L34.80 42.90L34.80 41.40L39.30 38.20L47.50 38.20Q47.50 36.20 47.05 34.92Q46.60 33.65 45.45 33.02Q44.30 32.40 42.15 32.40Q40.25 32.40 39.10 33.02Q37.95 33.65 37.43 35.25Q36.90 36.85 36.90 39.85Q36.90 42.45 37.30 44.08Q37.70 45.70 38.58 46.55Q39.45 47.40 40.93 47.70Q42.40 48 44.50 48Q46.25 48 47.95 47.77Q49.65 47.55 51.50 46.75L52.50 47.25L52.50 52.35Q51.10 52.90 49.30 53.25Q47.50 53.60 44.70 53.60Q41.75 53.60 39.13 53.05Q36.50 52.50 34.48 51.08Q32.45 49.65 31.28 47.02Q30.10 44.40 30.10 40.30ZM72.50 53.60Q69.95 53.60 67.50 52.98Q65.05 52.35 63.03 50.83Q61 49.30 59.80 46.73Q58.60 44.15 58.60 40.25Q58.60 36.50 59.70 33.95Q60.80 31.40 62.70 29.85Q64.60 28.30 67.10 27.60Q69.60 26.90 72.35 26.90Q74.40 26.90 75.93 27.20Q77.45 27.50 78.75 28.05L78.75 33.20L77.75 33.70Q76.75 33.20 75.48 32.85Q74.20 32.50 72.50 32.50Q70.25 32.50 68.65 33.33Q67.05 34.15 66.23 35.88Q65.40 37.60 65.40 40.35Q65.40 42.50 65.90 43.98Q66.40 45.45 67.33 46.33Q68.25 47.20 69.60 47.60Q70.95 48 72.65 48Q74.55 48 75.83 47.63Q77.10 47.25 78.10 46.75L79.10 47.25L79.10 52.35Q77.70 52.95 76.10 53.27Q74.50 53.60 72.50 53.60ZM101.10 53L101.60 49L101.60 37.05Q101.60 34.65 100.05 33.55Q98.50 32.45 96.05 32.45Q93.85 32.45 92.13 33.13Q90.40 33.80 89.20 34.67Q88 35.55 87.35 36.15L87.35 33.20L93.85 27.45Q95.30 27.15 96.35 27.02Q97.40 26.90 98.35 26.90Q102.10 26.90 104.28 28.20Q106.45 29.50 107.38 31.80Q108.30 34.10 108.30 37.05L108.30 49L108.80 53L101.10 53M84.20 53L84.70 49L84.70 20.60L84.20 16.60L91.90 16.60L91.40 20.60L91.40 49L91.90 53L84.20 53ZM138.90 53.60Q135.60 53.65 133.07 52.95Q130.55 52.25 128.45 51.10L128.45 45.20L129.65 44.70Q131.30 45.90 133.43 46.60Q135.55 47.30 138.35 47.30Q141.15 47.30 142.95 46.45Q144.75 45.60 144.75 43.55Q144.75 42.10 143.88 41.17Q143 40.25 141.55 39.63Q140.10 39 138.35 38.45Q136.60 37.90 134.85 37.15Q133.10 36.40 131.65 35.22Q130.20 34.05 129.32 32.22Q128.45 30.40 128.45 27.65Q128.45 24.20 129.95 21.92Q131.45 19.65 134.20 18.52Q136.95 17.40 140.70 17.40Q143.30 17.40 145.65 17.88Q148 18.35 150 19.20L150 25.05L148.80 25.55Q147.25 24.65 145.45 24.17Q143.65 23.70 141.75 23.70Q140.60 23.70 139.15 23.97Q137.70 24.25 136.63 25.07Q135.55 25.90 135.55 27.55Q135.55 29 136.43 29.92Q137.30 30.85 138.75 31.47Q140.20 32.10 141.95 32.70Q143.70 33.30 145.45 34.05Q147.20 34.80 148.65 35.95Q150.10 37.10 150.97 38.85Q151.85 40.60 151.85 43.25Q151.85 45.75 150.97 47.65Q150.10 49.55 148.45 50.88Q146.80 52.20 144.40 52.88Q142 53.55 138.90 53.60ZM169.65 53.60Q166 53.60 163.13 52.27Q160.25 50.95 158.60 48Q156.95 45.05 156.95 40.20Q156.95 36.60 157.90 34.08Q158.85 31.55 160.58 29.95Q162.30 28.35 164.60 27.63Q166.90 26.90 169.65 26.90Q172.40 26.90 174.70 27.63Q177 28.35 178.73 29.95Q180.45 31.55 181.40 34.08Q182.35 36.60 182.35 40.20Q182.35 45.05 180.70 48Q179.05 50.95 176.18 52.27Q173.30 53.60 169.65 53.60M169.65 48Q172.75 48 174.15 46.13Q175.55 44.25 175.55 40.20Q175.55 37.45 174.95 35.75Q174.35 34.05 173.05 33.27Q171.75 32.50 169.65 32.50Q167.60 32.50 166.28 33.27Q164.95 34.05 164.35 35.75Q163.75 37.45 163.75 40.20Q163.75 44.25 165.15 46.13Q166.55 48 169.65 48ZM201.05 47.60L201.05 53Q199.80 53.35 198.60 53.48Q197.40 53.60 196.40 53.60Q194.15 53.60 192.43 52.92Q190.70 52.25 189.72 50.73Q188.75 49.20 188.75 46.60L188.75 20.60L188.25 16.60L195.95 16.60L195.45 20.60L195.45 45.40Q195.45 46.80 196.32 47.23Q197.20 47.65 198 47.65Q198.70 47.65 199.20 47.48Q199.70 47.30 200.05 47.10L201.05 47.60ZM216.90 53.60Q214.75 53.60 212.88 53.15Q211 52.70 209.60 51.58Q208.20 50.45 207.43 48.50Q206.65 46.55 206.65 43.55L206.65 31.50L206.15 27.50L213.85 27.50L213.35 31.50L213.35 43.50Q213.35 45.05 213.97 46.05Q214.60 47.05 215.93 47.55Q217.25 48.05 219.30 48.05Q221.70 48.05 223.15 47.48Q224.60 46.90 225.50 46.05L225.50 48.70L221.60 53.05Q220.55 53.30 219.40 53.45Q218.25 53.60 216.90 53.60M225.25 53L224.05 50.05L224.05 31.50L223.55 27.50L231.25 27.50L230.75 31.50L230.75 49.10L231.25 53L225.25 53ZM240.10 45.40L240.10 23.90L239.85 20.40L247.05 20.40L246.80 23.90L246.80 44.70Q246.80 46.50 247.60 47.17Q248.40 47.85 250.40 47.85Q251.55 47.85 252.38 47.65Q253.20 47.45 253.95 47.10L254.95 47.60L254.95 52.85Q253.85 53.15 252.43 53.38Q251.00 53.60 249.40 53.60Q246.70 53.60 244.60 52.83Q242.50 52.05 241.30 50.23Q240.10 48.40 240.10 45.40M235.80 33.45L235.80 27.50L238.10 27.50L243.40 29L248.80 27.50L253.95 27.50L253.95 33.45L251.45 33.20L238.30 33.20L235.80 33.45ZM267.45 24.05Q265.85 24.05 264.75 23.02Q263.65 22 263.65 20.25Q263.65 18.50 264.75 17.48Q265.85 16.45 267.45 16.45Q269.05 16.45 270.15 17.48Q271.25 18.50 271.25 20.25Q271.25 22 270.15 23.02Q269.05 24.05 267.45 24.05M264.05 53L264.55 49L264.55 33.10L258.85 33.10L258.85 27.50L271.75 27.50L271.25 31.50L271.25 49L271.75 53L264.05 53ZM291.20 53.60Q287.55 53.60 284.68 52.27Q281.80 50.95 280.15 48Q278.50 45.05 278.50 40.20Q278.50 36.60 279.45 34.08Q280.40 31.55 282.13 29.95Q283.85 28.35 286.15 27.63Q288.45 26.90 291.20 26.90Q293.95 26.90 296.25 27.63Q298.55 28.35 300.28 29.95Q302 31.55 302.95 34.08Q303.90 36.60 303.90 40.20Q303.90 45.05 302.25 48Q300.60 50.95 297.73 52.27Q294.85 53.60 291.20 53.60M291.20 48Q294.30 48 295.70 46.13Q297.10 44.25 297.10 40.20Q297.10 37.45 296.50 35.75Q295.90 34.05 294.60 33.27Q293.30 32.50 291.20 32.50Q289.15 32.50 287.83 33.27Q286.50 34.05 285.90 35.75Q285.30 37.45 285.30 40.20Q285.30 44.25 286.70 46.13Q288.10 48 291.20 48ZM327.20 53L327.70 49L327.70 37Q327.70 34.65 326.28 33.55Q324.85 32.45 321.75 32.45Q320.15 32.45 318.98 32.70Q317.80 32.95 316.98 33.40Q316.15 33.85 315.55 34.45L315.55 31.80L320.10 27.30Q321.05 27.10 322.03 27Q323 26.90 324.10 26.90Q326.80 26.90 329.15 27.77Q331.50 28.65 332.95 30.82Q334.40 33 334.40 36.95L334.40 49L334.90 53L327.20 53M309.80 53L310.30 49L310.30 31.40L309.80 27.50L315.80 27.50L317 30.45L317 49L317.50 53L309.80 53ZM359.50 28.10L359.50 33.30L358.50 33.80Q357.25 33.20 355.68 32.85Q354.10 32.50 352.20 32.50Q351.35 32.50 350.18 32.65Q349 32.80 348.13 33.30Q347.25 33.80 347.25 34.85Q347.25 35.90 348.25 36.45Q349.25 37 350.80 37.35Q352.35 37.70 354.10 38.13Q355.85 38.55 357.40 39.35Q358.95 40.15 359.95 41.63Q360.95 43.10 360.95 45.55Q360.95 48.50 359.48 50.27Q358 52.05 355.48 52.83Q352.95 53.60 349.85 53.60Q347.10 53.60 344.77 53.13Q342.45 52.65 340.85 52.15L340.85 46.70L341.85 46.20Q342.80 46.80 344.65 47.40Q346.50 48 349.60 48Q351 48 352.10 47.83Q353.20 47.65 353.85 47.15Q354.50 46.65 354.50 45.80Q354.50 44.70 353.52 44.17Q352.55 43.65 350.98 43.35Q349.40 43.05 347.68 42.65Q345.95 42.25 344.38 41.45Q342.80 40.65 341.82 39.08Q340.85 37.50 340.85 34.85Q340.85 32.60 341.63 31.05Q342.40 29.50 343.88 28.60Q345.35 27.70 347.38 27.30Q349.40 26.90 351.90 26.90Q354.30 26.90 356.18 27.22Q358.05 27.55 359.50 28.10Z"/></g></g></svg>